<?xml version="1.0" standalone="no"?>
<!DOCTYPE svg PUBLIC "-//W3C//DTD SVG 20010904//EN"
 "http://www.w3.org/TR/2001/REC-SVG-20010904/DTD/svg10.dtd">
<svg version="1.0" xmlns="http://www.w3.org/2000/svg"
 width="128.000000pt" height="128.000000pt" viewBox="0 0 128.000000 128.000000"
 preserveAspectRatio="xMidYMid meet">
<g transform="translate(0.000000,128.000000) scale(0.100000,-0.100000)"
fill="#000000" stroke="none">
<path d="M541 1269 c-85 -15 -183 -53 -247 -95 -329 -217 -389 -671 -127 -954
121 -130 260 -196 438 -207 72 -5 107 -1 175 16 131 33 202 73 300 171 96 96
137 167 170 296 85 332 -116 672 -447 758 -79 21 -194 27 -262 15z m280 -93
c175 -61 310 -203 363 -385 21 -72 21 -230 0 -302 -78 -266 -336 -443 -594
-409 -169 23 -251 60 -355 165 -115 115 -165 237 -165 402 0 111 31 220 85
301 l36 53 38 -53 37 -53 152 -3 c84 -1 152 -5 152 -8 0 -3 -6 -17 -14 -32 -7
-15 -16 -44 -20 -64 l-7 -38 -149 0 -149 0 -3 -215 -3 -215 319 0 c213 0 332
4 357 12 55 16 118 73 145 132 33 71 32 92 -7 100 -71 14 -85 9 -98 -33 -17
-59 -70 -101 -127 -101 -75 0 -115 42 -144 150 -7 25 -17 48 -24 52 -6 4 -35
8 -63 8 l-53 0 0 -33 c0 -47 26 -129 51 -161 l20 -26 -125 0 -126 0 0 115 0
115 260 0 c143 0 260 3 260 6 0 3 -14 26 -32 50 l-31 44 -74 0 c-72 0 -74 1
-68 23 33 118 69 157 147 157 44 0 54 -4 82 -34 18 -18 38 -52 44 -75 12 -39
15 -41 50 -41 51 0 82 10 82 26 0 7 -9 38 -20 67 -22 59 -72 117 -123 143 -46
24 -152 29 -207 10 -27 -9 -46 -11 -48 -6 -2 6 -93 10 -230 10 l-227 1 45 40
c62 55 195 120 267 130 95 13 214 3 294 -25z"/>
</g>
</svg>
